# xmcd CD database file generated by Grip 2.94
# 
# Track frame offsets:
#       150
#       14679
#       30964
#       51525
#       66868
#       79590
#       99749
#       117389
#       135908
#       152264
#       169238
#       190889
# 
# Disc length: 2759 seconds
# 
# Revision: 3
# Processed by: cddbd v1.4PL0 Copyright (c) Steve Scherf et al.
# Submitted via: Grip 2.94
# 
DISCID=970ac50c
DTITLE=Eddie Collins - Guitar Slingers and Texas Music
DYEAR=1900
DGENRE=
TTITLE0=Raised on Texas Music
TTITLE1=The Memphis Stumble
TTITLE2=In Love You Sometimes Win
TTITLE3=Thinking 'bout You
TTITLE4=Evil-Headted Woman
TTITLE5=Amy's Waltz
TTITLE6=Guitar Slinger
TTITLE7=Oh, to be Young
TTITLE8=Just as Long as I Stay Gone
TTITLE9=Someone Wants to Hurt Me
TTITLE10=Seattle's Reign
TTITLE11=Take Me Back to Texas
EXTD=
EXTT0=
EXTT1=
EXTT2=
EXTT3=
EXTT4=
EXTT5=
EXTT6=
EXTT7=
EXTT8=
EXTT9=
EXTT10=
EXTT11=
PLAYORDER=
